<svg width="24" height="24" viewBox="0 0 24 24" fill="none" xmlns="http://www.w3.org/2000/svg">
<path opacity="0.35" d="M18 21H6C4.343 21 3 19.657 3 18V7.00002H21V18C21 19.657 19.657 21 18 21Z" fill="#5F41B2"/>
<path d="M18 3H6C4.343 3 3 4.343 3 6V7H21V6C21 4.343 19.657 3 18 3Z" fill="#5F41B2"/>
<path d="M14.0001 19C14.5523 19 15.0001 18.5523 15.0001 18C15.0001 17.4477 14.5523 17 14.0001 17C13.4478 17 13.0001 17.4477 13.0001 18C13.0001 18.5523 13.4478 19 14.0001 19Z" fill="#5F41B2"/>
<path d="M10 19C10.5523 19 11 18.5523 11 18C11 17.4477 10.5523 17 10 17C9.44772 17 9 17.4477 9 18C9 18.5523 9.44772 19 10 19Z" fill="#5F41B2"/>
<path d="M5.99994 19C6.55222 19 6.99994 18.5523 6.99994 18C6.99994 17.4477 6.55222 17 5.99994 17C5.44765 17 4.99994 17.4477 4.99994 18C4.99994 18.5523 5.44765 19 5.99994 19Z" fill="#5F41B2"/>
<path d="M5.99994 15C6.55222 15 6.99994 14.5523 6.99994 14C6.99994 13.4477 6.55222 13 5.99994 13C5.44765 13 4.99994 13.4477 4.99994 14C4.99994 14.5523 5.44765 15 5.99994 15Z" fill="#5F41B2"/>
<path d="M10 15C10.5523 15 11 14.5523 11 14C11 13.4477 10.5523 13 10 13C9.44772 13 9 13.4477 9 14C9 14.5523 9.44772 15 10 15Z" fill="#5F41B2"/>
<path d="M14.0001 15C14.5523 15 15.0001 14.5523 15.0001 14C15.0001 13.4477 14.5523 13 14.0001 13C13.4478 13 13.0001 13.4477 13.0001 14C13.0001 14.5523 13.4478 15 14.0001 15Z" fill="#5F41B2"/>
<path d="M17.9999 15C18.5522 15 18.9999 14.5523 18.9999 14C18.9999 13.4477 18.5522 13 17.9999 13C17.4477 13 16.9999 13.4477 16.9999 14C16.9999 14.5523 17.4477 15 17.9999 15Z" fill="#5F41B2"/>
<path d="M17.9999 11C18.5522 11 18.9999 10.5523 18.9999 10C18.9999 9.44772 18.5522 9 17.9999 9C17.4477 9 16.9999 9.44772 16.9999 10C16.9999 10.5523 17.4477 11 17.9999 11Z" fill="#5F41B2"/>
<path d="M14.0001 11C14.5523 11 15.0001 10.5523 15.0001 10C15.0001 9.44772 14.5523 9 14.0001 9C13.4478 9 13.0001 9.44772 13.0001 10C13.0001 10.5523 13.4478 11 14.0001 11Z" fill="#5F41B2"/>
<path d="M10 11C10.5523 11 11 10.5523 11 10C11 9.44772 10.5523 9 10 9C9.44772 9 9 9.44772 9 10C9 10.5523 9.44772 11 10 11Z" fill="#5F41B2"/>
</svg>
