<svg width="31" height="31" viewBox="0 0 31 31" fill="none" xmlns="http://www.w3.org/2000/svg">
<circle cx="15.8311" cy="15.4866" r="15.169" fill="#5F41B2"/>
<path d="M19.5395 7.70218C20.1003 8.13968 20.3753 8.81802 20.5086 9.32302C20.6053 9.68968 20.3311 10.0413 19.9511 10.0363C19.4295 10.0297 18.7045 9.92718 18.1445 9.48968C17.5836 9.05218 17.3086 8.37385 17.1753 7.86885C17.0778 7.50218 17.352 7.15052 17.732 7.15552C18.2536 7.16218 18.9786 7.26468 19.5395 7.70218Z" fill="#F0EEFD"/>
<path d="M23.416 11.168C23.1369 11.8222 22.5519 12.2622 22.0977 12.5197C21.7677 12.7072 21.3577 12.5322 21.2652 12.1638C21.1385 11.6572 21.0519 10.9305 21.331 10.2772C21.6102 9.62301 22.1952 9.18301 22.6494 8.92551C22.9794 8.73801 23.3893 8.91301 23.4819 9.28134C23.6085 9.78717 23.6952 10.5138 23.416 11.168Z" fill="#F0EEFD"/>
<path d="M20.6052 10.603C21.2793 10.8288 21.7643 11.3772 22.0585 11.8088C22.2718 12.123 22.1302 12.5455 21.7702 12.6672C21.2752 12.8347 20.5577 12.9788 19.8843 12.753C19.2102 12.5272 18.7243 11.9788 18.431 11.5472C18.2177 11.233 18.3593 10.8105 18.7185 10.6888C19.2135 10.5213 19.931 10.3772 20.6052 10.603Z" fill="#F0EEFD"/>
<path d="M24.0619 15.5572C23.5603 16.0605 22.8536 16.2522 22.3361 16.3239C21.9603 16.3755 21.6444 16.0605 21.6953 15.6847C21.7653 15.1672 21.9544 14.4605 22.4561 13.9572C22.9578 13.453 23.6644 13.2622 24.1819 13.1905C24.5578 13.1389 24.8736 13.4539 24.8228 13.8297C24.7536 14.3464 24.5644 15.0539 24.0619 15.5572Z" fill="#F0EEFD"/>
<path d="M21.662 13.9905C22.2045 14.4505 22.4512 15.1397 22.5637 15.6497C22.6453 16.0205 22.357 16.3605 21.9778 16.3397C21.4562 16.3114 20.7362 16.1797 20.1945 15.7197C19.652 15.2597 19.4045 14.5705 19.292 14.0605C19.2103 13.6897 19.4987 13.3497 19.8778 13.3705C20.4003 13.3989 21.1203 13.5305 21.662 13.9905Z" fill="#F0EEFD"/>
<path d="M22.7028 19.8214C22.027 20.043 21.3103 19.8922 20.817 19.7214C20.4586 19.5972 20.3195 19.173 20.5353 18.8605C20.832 18.4314 21.322 17.8872 21.997 17.6664C22.6728 17.4447 23.3895 17.5955 23.8828 17.7664C24.2411 17.8905 24.3803 18.3147 24.1645 18.6264C23.8678 19.0564 23.3786 19.6005 22.7028 19.8214Z" fill="#F0EEFD"/>
<path d="M21.2745 17.3364C21.5495 17.9922 21.457 18.7189 21.3261 19.2239C21.2311 19.5914 20.8195 19.763 20.4911 19.573C20.0395 19.3114 19.4578 18.8672 19.1836 18.2114C18.9086 17.5555 19.0011 16.8289 19.1328 16.3239C19.2278 15.9564 19.6395 15.7847 19.9678 15.9747C20.4186 16.2364 20.9995 16.6805 21.2745 17.3364Z" fill="#F0EEFD"/>
<path d="M19.441 22.7222C18.7319 22.6755 18.1227 22.268 17.7294 21.9255C17.4427 21.6763 17.4727 21.2313 17.7894 21.0222C18.2252 20.7347 18.8827 20.4122 19.5919 20.4597C20.301 20.5063 20.9102 20.9138 21.3044 21.2563C21.5902 21.5055 21.561 21.9505 21.2444 22.1597C20.8077 22.4472 20.1502 22.7688 19.441 22.7222Z" fill="#F0EEFD"/>
<path d="M19.0436 19.883C19.0536 20.5939 18.6969 21.233 18.3861 21.653C18.1603 21.958 17.7144 21.9647 17.4811 21.6655C17.1594 21.2539 16.7861 20.6247 16.7761 19.9139C16.7661 19.203 17.1228 18.563 17.4336 18.143C17.6594 17.838 18.1053 17.8314 18.3386 18.1305C18.6603 18.543 19.0344 19.1722 19.0436 19.883Z" fill="#F0EEFD"/>
<path opacity="0.35" d="M22.7802 14.838C22.7802 9.76886 19.3411 8.12303 19.1944 8.05553C18.8811 7.91053 18.5136 8.04636 18.3686 8.35803C18.2219 8.6697 18.3569 9.04053 18.6669 9.18803C18.7844 9.24386 21.5302 10.598 21.5302 14.8372C21.5302 19.633 18.9919 20.2747 16.5386 20.8964C16.1802 20.9872 15.8277 21.0764 15.4886 21.178C15.1502 21.0764 14.7969 20.9864 14.4386 20.8964C11.9852 20.2755 9.4469 19.633 9.4469 14.8372C9.4469 10.598 12.1927 9.24386 12.3069 9.1897C12.6202 9.04553 12.7569 8.67386 12.6119 8.36053C12.4677 8.04636 12.0936 7.91053 11.7827 8.05553C11.6361 8.12303 8.1969 9.76886 8.1969 14.838C8.1969 20.328 11.3019 21.378 13.7611 22.013C13.4761 22.2472 13.2327 22.5289 13.0586 22.8914C12.9086 23.2022 13.0402 23.5755 13.3511 23.7255C13.4377 23.768 13.5311 23.7872 13.6211 23.7872C13.8536 23.7872 14.0777 23.6572 14.1852 23.433C14.4002 22.9855 14.8761 22.7105 15.4886 22.4939C16.1011 22.7105 16.5769 22.9855 16.7919 23.433C16.8994 23.6572 17.1227 23.7872 17.3561 23.7872C17.4461 23.7872 17.5394 23.768 17.6261 23.7255C17.9369 23.5755 18.0677 23.2022 17.9186 22.8914C17.7444 22.5297 17.5011 22.248 17.2161 22.013C19.6752 21.378 22.7802 20.3272 22.7802 14.838Z" fill="#F0EEFD"/>
<path d="M13.2453 7.15552C13.6245 7.15052 13.8995 7.50218 13.802 7.86885C13.6686 8.37385 13.3936 9.05218 12.8328 9.48968C12.2728 9.92718 11.5486 10.0297 11.0261 10.0364C10.647 10.0413 10.372 9.69052 10.4686 9.32302C10.602 8.81802 10.877 8.13968 11.4378 7.70218C11.9986 7.26468 12.7236 7.16218 13.2453 7.15552Z" fill="#F0EEFD"/>
<path d="M7.49615 9.28055C7.58865 8.91221 7.99865 8.73721 8.32865 8.92471C8.78282 9.18305 9.36782 9.62305 9.64699 10.2764C9.92615 10.9305 9.83949 11.6572 9.71199 12.1639C9.62032 12.5322 9.21032 12.7072 8.88032 12.5197C8.42615 12.2614 7.84115 11.8214 7.56199 11.168C7.28199 10.5139 7.36865 9.78721 7.49615 9.28055Z" fill="#F0EEFD"/>
<path d="M12.2577 10.6888C12.6169 10.8105 12.7594 11.233 12.5452 11.5472C12.2519 11.9788 11.7669 12.5272 11.0919 12.753C10.4185 12.9788 9.70021 12.8347 9.20605 12.6672C8.84688 12.5463 8.70521 12.123 8.91855 11.8097C9.21188 11.3772 9.69771 10.8288 10.3719 10.603C11.046 10.3772 11.7635 10.5213 12.2577 10.6888Z" fill="#F0EEFD"/>
<path d="M6.15352 13.8297C6.10269 13.453 6.41852 13.138 6.79519 13.1905C7.31269 13.2622 8.01936 13.453 8.52102 13.9572C9.02269 14.4605 9.21186 15.1672 9.28186 15.6847C9.33269 16.0605 9.01686 16.3755 8.64102 16.3239C8.12352 16.2522 7.41686 16.0614 6.91519 15.5572C6.41269 15.0539 6.22352 14.3464 6.15352 13.8297Z" fill="#F0EEFD"/>
<path d="M11.0986 13.3705C11.4778 13.3497 11.7661 13.6897 11.6845 14.0605C11.572 14.5705 11.3245 15.2597 10.782 15.7197C10.2403 16.1797 9.52028 16.3114 8.99862 16.3397C8.61945 16.3605 8.33112 16.0205 8.41278 15.6497C8.52528 15.1397 8.77278 14.4505 9.31445 13.9905C9.85695 13.5305 10.577 13.3989 11.0986 13.3705Z" fill="#F0EEFD"/>
<path d="M6.81275 18.6272C6.59692 18.3147 6.73525 17.8914 7.09442 17.7672C7.58775 17.5964 8.30442 17.4455 8.98025 17.6672C9.65525 17.888 10.1452 18.4322 10.4419 18.8614C10.6577 19.1739 10.5194 19.5972 10.1602 19.7222C9.66692 19.893 8.95025 20.0439 8.27442 19.8222C7.59858 19.6005 7.10942 19.0564 6.81275 18.6272Z" fill="#F0EEFD"/>
<path d="M11.0111 15.9747C11.3395 15.7847 11.7511 15.9564 11.8461 16.3239C11.977 16.8297 12.0695 17.5555 11.7953 18.2114C11.5211 18.8672 10.9395 19.3114 10.4878 19.573C10.1595 19.763 9.7478 19.5914 9.6528 19.2239C9.52196 18.718 9.42946 17.9922 9.70446 17.3364C9.9778 16.6805 10.5586 16.2364 11.0111 15.9747Z" fill="#F0EEFD"/>
<path d="M9.73358 22.1597C9.41691 21.9505 9.38691 21.5055 9.67358 21.2563C10.0677 20.913 10.6761 20.5063 11.3861 20.4597C12.0952 20.4122 12.7527 20.7347 13.1886 21.0222C13.5052 21.2313 13.5352 21.6763 13.2486 21.9255C12.8544 22.2688 12.2461 22.6755 11.5369 22.7222C10.8269 22.7688 10.1694 22.4472 9.73358 22.1597Z" fill="#F0EEFD"/>
<path d="M12.6387 18.1314C12.8728 17.8322 13.3178 17.838 13.5437 18.1439C13.8537 18.5639 14.2112 19.203 14.2012 19.9147C14.1912 20.6255 13.8178 21.2547 13.4962 21.6664C13.2628 21.9655 12.817 21.9597 12.5912 21.6539C12.2812 21.2339 11.9237 20.5947 11.9337 19.8839C11.9428 19.1722 12.317 18.543 12.6387 18.1314Z" fill="#F0EEFD"/>
</svg>
